<?xml version="1.0"?>
<svg version="1.1" xmlns="http://www.w3.org/2000/svg" width="400px" height="200px" style="border: 2px solid black;border-radius: 25px;"><path fill="#0095ff" d="M20.1572265625,112.0595703125q0-0.517578125,0.80224609375-0.8798828125t1.9150390625-0.517578125t2.1220703125-0.2587890625t1.52685546875-0.103515625q0.20703125-1.3974609375,0.59521484375-3.7783203125t0.95751953125-5.09814453125t1.42333984375-5.46044921875t2.0703125-4.96875t2.87255859375-3.64892578125t3.8818359375-1.42333984375l-0.103515625,0q0.724609375-0.103515625,1.42333984375-0.1552734375t1.42333984375-0.0517578125q1.7080078125,0,3.70068359375,0.6728515625t3.70068359375,1.88916015625t2.87255859375,2.92431640625t1.16455078125,3.623046875q0,1.5009765625-0.75048828125,3.23486328125t-2.61376953125,1.73388671875q-0.62109375,0-1.26806640625-0.310546875t-1.21630859375-0.6728515625q0.20703125-1.1904296875,0.20703125-2.380859375q0-0.62109375-0.0517578125-1.1904296875q-0.1552734375-1.8115234375-0.7763671875-3.18310546875t-1.78564453125-2.173828125t-2.76904296875-0.59521484375q-2.1220703125,0.310546875-3.18310546875,2.587890625t-1.47509765625,5.40869140625t-0.517578125,6.3662109375t-0.4140625,5.25341796875q2.4326171875,0.20703125,4.11474609375,0.20703125l4.21826171875,0q0.4140625,0,1.42333984375,0.0517578125t1.966796875,0.20703125t1.7080078125,0.54345703125t0.75048828125,1.00927734375q0,0.517578125-0.4140625,0.90576171875t-1.00927734375,0.54345703125t-1.2421875,0.20703125t-1.06103515625,0.0517578125q-1.8115234375,0-3.07958984375-0.1552734375t-2.4326171875-0.28466796875t-2.4326171875-0.12939453125t-2.97607421875,0.3623046875q-0.517578125,5.7451171875-0.828125,11.38671875t-0.310546875,11.38671875q0,9.005859375,0.5693359375,17.6494140625t2.0703125,17.5458984375q0.20703125,0.828125,0.3623046875,1.88916015625t0.1552734375,2.04443359375q0,0.931640625-0.5693359375,1.52685546875t-1.42333984375,0.85400390625t-1.759765625,0.3623046875t-1.63037109375,0.103515625q-2.9501953125,0-4.140625-0.90576171875t-1.7080078125-3.64892578125q-1.2939453125-7.2978515625-1.65625-14.72509765625t-0.3623046875-14.98388671875q0-7.4013671875,0.54345703125-14.77685546875t1.37158203125-14.67333984375q-0.4140625,0-1.42333984375,0.0517578125t-2.0185546875,0t-1.759765625-0.3623046875t-0.75048828125-1.0869140625z M55.697763671875,149.9462890625q0-0.310546875,0.75048828125-1.65625t1.9150390625-3.23486328125t2.5361328125-4.11474609375t2.7431640625-4.3994140625t2.56201171875-3.93359375t1.8115234375-2.69140625q-0.62109375-1.1904296875-2.1220703125-3.2607421875t-3.07958984375-4.1923828125t-2.7431640625-4.0888671875t-1.16455078125-2.8984375q0-1.5009765625,1.47509765625-1.966796875t2.87255859375-0.4658203125q1.5009765625,0,2.1220703125,0.2587890625t1.65625,1.44921875q-0.103515625,0.310546875,0.75048828125,1.63037109375t2.0185546875,2.794921875t2.2255859375,2.69140625t1.26806640625,1.57861328125l2.27734375-2.27734375t2.82080078125-2.61376953125t3.07958984375-2.1220703125t2.9501953125-0.85400390625q0.517578125,0,1.57861328125,0.2587890625t1.06103515625,1.03515625q-1.5009765625,1.6044921875-2.7431640625,2.6396484375t-2.5361328125,2.09619140625t-2.587890625,2.380859375t-3.001953125,3.33837890625q0.724609375,1.1904296875,2.7431640625,3.93359375t4.0888671875,5.82275390625t3.64892578125,5.796875t1.57861328125,3.75244140625q0,0.62109375-0.64697265625,1.00927734375t-1.47509765625,0.64697265625t-1.68212890625,0.3623046875t-1.26806640625,0.103515625q-1.1904296875,0-2.71728515625-0.310546875t-2.19970703125-1.3974609375q-2.0185546875-2.9501953125-3.49365234375-6.18505859375t-3.59716796875-6.18505859375q-0.4140625,0.724609375-1.68212890625,3.416015625t-3.02783203125,5.66748046875t-3.70068359375,5.30517578125t-3.54541015625,2.3291015625l-0.103515625,0q-0.724609375,0-2.0703125-0.2587890625t-1.345703125-1.1904296875z M96.20705078125,136.4892578125q0-11.2314453125,1.00927734375-22.48876953125t4.21826171875-22.17822265625q0.931640625-3.2607421875,2.4326171875-6.44384765625t3.6748046875-5.66748046875t5.17578125-4.037109375t7.142578125-1.552734375l1.0869140625,0.103515625q4.451171875,0.62109375,6.5732421875,3.59716796875t2.1220703125,7.42724609375q0,1.1904296875-0.28466796875,2.97607421875t-0.90576171875,3.44189453125t-1.68212890625,2.82080078125t-2.66552734375,1.16455078125q-0.724609375-0.103515625-1.31982421875-0.2587890625t-1.11279296875-0.6728515625q0.828125-1.8115234375,1.47509765625-3.7783203125t0.64697265625-4.5029296875q0-0.931640625-0.1552734375-2.380859375t-0.59521484375-2.87255859375t-1.16455078125-2.484375t-2.0185546875-1.06103515625q-3.2607421875,0-5.486328125,3.64892578125t-3.7265625,9.31640625t-2.2255859375,12.525390625t-1.11279296875,13.25t-0.43994140625,11.5419921875t-0.0517578125,7.27197265625q0,2.484375-0.0517578125,5.486328125l0,0.6728515625q0.0517578125,2.6396484375,0.3623046875,5.0205078125q0.4140625,2.69140625,1.6044921875,4.658203125t3.7265625,2.27734375q0.7763671875,0.103515625,1.5009765625,0.103515625q3.001953125,0,5.4345703125-1.7080078125q3.001953125-2.1220703125,5.3310546875-5.51220703125t4.140625-7.453125t3.33837890625-7.68603515625t2.97607421875-6.00390625t3.001953125-2.380859375q0.517578125,0,1.552734375,0.20703125t1.03515625,0.9833984375q0,0.20703125-0.103515625,0.5693359375t-0.2587890625,0.5693359375q-1.3974609375,5.486328125-3.54541015625,11.38671875t-5.486328125,10.73974609375t-8.177734375,7.89306640625t-11.61962890625,3.0537109375q-4.865234375,0-7.89306640625-1.83740234375t-4.658203125-4.9169921875t-2.2255859375-6.96142578125t-0.59521484375-7.8671875z M151.36379882812,139.3359375l0-4.865234375q0-2.6396484375,0.12939453125-7.47900390625t0.33642578125-10.6103515625t0.5693359375-12.03369140625t0.828125-11.82666015625t1.11279296875-9.96337890625t1.47509765625-6.521484375q0.517578125-1.1904296875,1.7080078125-1.5009765625t2.3291015625-0.310546875q1.8115234375,0,3.18310546875,0.80224609375t1.37158203125,2.92431640625l-0.931640625,1.03515625q-1.8115234375,11.9560546875-2.3291015625,24.015625t-0.724609375,24.119140625q1.2939453125-2.0185546875,2.92431640625-3.95947265625t3.623046875-3.44189453125t4.2958984375-2.40673828125t5.04638671875-0.90576171875q3.51953125,0,5.82275390625,2.1220703125t3.80419921875,5.51220703125t2.2255859375,7.58251953125t1.11279296875,8.384765625t0.54345703125,7.94482421875t0.4658203125,6.23681640625q-0.9833984375,1.345703125-2.8984375,1.345703125l-0.1552734375,0q-0.828125,0-1.8115234375-0.20703125t-1.2939453125-1.03515625l0.103515625,0.103515625q-0.724609375-1.6044921875-0.9833984375-4.63232421875t-0.4140625-6.6767578125t-0.54345703125-7.47900390625t-1.16455078125-6.935546875t-2.27734375-5.1240234375t-4.037109375-2.1220703125l-0.310546875,0q-3.0537109375,0-5.1240234375,1.86328125q-2.173828125,1.966796875-3.51953125,5.17578125t-2.0703125,7.142578125t-1.11279296875,7.58251953125t-0.59521484375,6.625t-0.517578125,4.37353515625q-0.310546875,1.1904296875-1.83740234375,1.57861328125t-2.61376953125,0.38818359375q-2.5361328125,0-4.140625-1.44921875q-1.1904296875-2.8466796875-1.3974609375-7.0908203125t-0.20703125-8.28125z M200.8789453125,133.6943359375q0-3.51953125,0.95751953125-6.7802734375t2.87255859375-5.82275390625t4.78759765625-4.0888671875t6.65087890625-1.52685546875q2.3291015625,0,5.14990234375,0.69873046875t5.30517578125,2.0703125t4.140625,3.49365234375t1.65625,4.865234375q0,1.2939453125-0.43994140625,1.966796875t-1.78564453125,0.6728515625l-0.5693359375-0.103515625q1.5009765625,4.037109375,2.587890625,8.28125t2.1220703125,8.48828125q0.4140625,0.828125,0.62109375,1.47509765625t0.20703125,1.26806640625q0,0.828125-0.4658203125,1.37158203125t-1.21630859375,0.80224609375t-1.552734375,0.3623046875t-1.42333984375,0.103515625q-2.2255859375,0-3.33837890625-0.7763671875t-1.6044921875-2.1220703125t-0.59521484375-3.02783203125t-0.4140625-3.39013671875q-0.62109375,2.0185546875-1.63037109375,3.93359375t-2.380859375,3.44189453125t-3.23486328125,2.4326171875t-4.1923828125,0.90576171875q-3.416015625,0-5.7451171875-1.966796875t-3.75244140625-4.83935546875t-2.0703125-6.13330078125t-0.64697265625-6.0556640625z M208.2285546875,132.9697265625q0,1.9150390625,0.2587890625,4.037109375t0.85400390625,4.1923828125t1.52685546875,3.90771484375t2.3291015625,3.23486328125q2.5361328125-2.7431640625,3.75244140625-6.6767578125t2.173828125-7.58251953125t2.173828125-6.2626953125t3.75244140625-2.61376953125q1.6044921875,0,2.69140625,0.5693359375q-0.517578125-1.2939453125-1.7080078125-2.51025390625t-2.66552734375-2.2255859375t-3.0537109375-1.65625t-2.97607421875-0.64697265625q-0.4140625,0-0.95751953125,0.12939453125t-0.85400390625,0.02587890625q-2.1220703125,0.62109375-3.49365234375,2.14794921875t-2.2255859375,3.59716796875t-1.21630859375,4.244140625t-0.3623046875,4.0888671875z M245.78764648438,133.953125l0-1.5009765625q0-1.86328125,0.103515625-3.51953125q0.103515625-2.3291015625,0.103515625-3.830078125q0-0.828125,0.103515625-1.88916015625t0.517578125-1.68212890625q0.517578125-0.517578125,1.21630859375-1.06103515625t1.52685546875-0.54345703125q2.6396484375,0,4.140625,0.59521484375t1.6044921875,2.45849609375l0.20703125,1.6044921875q0.931640625-2.2255859375,2.484375-5.51220703125t3.59716796875-6.2626953125t4.6064453125-5.072265625t5.40869140625-2.09619140625q2.6396484375,0,4.34765625,2.484375t2.71728515625,6.34033203125t1.42333984375,8.591796875t0.5693359375,9.29052734375t0.20703125,8.30712890625t0.3623046875,5.66748046875q0.20703125,1.6044921875,0.69873046875,3.39013671875t0.49169921875,3.28662109375q0,0.4140625-0.59521484375,0.80224609375t-1.26806640625,0.64697265625t-1.37158203125,0.4140625t-1.00927734375,0.1552734375q-2.0185546875,0-2.87255859375-3.02783203125t-1.06103515625-7.58251953125t-0.20703125-9.85986328125t-0.3623046875-9.85986328125t-1.47509765625-7.58251953125t-3.54541015625-3.13134765625q-2.2255859375,0-4.6064453125,2.87255859375t-4.0888671875,7.63427734375q-1.65625,4.76171875-2.27734375,10.8173828125q-0.20703125,1.9150390625-0.20703125,3.830078125q0,4.1923828125,0.8798828125,8.384765625q0.103515625,0.724609375-0.59521484375,1.0869140625t-1.73388671875,0.5693359375t-2.09619140625,0.2587890625t-1.63037109375,0.0517578125q-2.0185546875,0-3.23486328125-1.42333984375t-1.88916015625-3.64892578125t-0.90576171875-4.99462890625t-0.28466796875-5.46044921875z M292.81841796875,131.8828125q0-2.8466796875,0.54345703125-6.08154296875t1.86328125-5.92626953125t3.64892578125-4.451171875t5.9521484375-1.759765625q2.4326171875,0,4.7099609375,0.80224609375t4.2958984375,2.19970703125q0.62109375-1.03515625,1.966796875-1.26806640625t2.380859375-0.23291015625q0.4140625,0,1.16455078125,0.0517578125t1.47509765625,0.310546875t1.26806640625,0.62109375t0.64697265625,1.03515625q0.4140625,3.623046875,0.5693359375,7.22021484375t0.4658203125,7.16845703125q0.517578125,6.6767578125,1.6044921875,13.1982421875t1.0869140625,13.1982421875q0,3.1572265625-0.28466796875,6.83203125t-1.5009765625,6.80615234375t-3.54541015625,5.20166015625t-6.4697265625,2.0703125q-3.7265625,0-5.71923828125-1.31982421875t-3.59716796875-4.42529296875q0.103515625-1.03515625,1.31982421875-1.37158203125t2.09619140625-0.33642578125q0.828125,0,1.68212890625,0.1552734375t1.37158203125,0.517578125l1.2939453125,0.828125q1.9150390625-3.93359375,2.3291015625-8.591796875t0.4140625-9.005859375q0-3.623046875-0.3623046875-7.16845703125t-0.724609375-7.11669921875q-3.623046875,6.5732421875-11.0244140625,6.5732421875q-3.416015625,0-5.56396484375-1.44921875t-3.3125-3.6748046875t-1.6044921875-5.0205078125t-0.43994140625-5.58984375z M299.18462890625,132.3486328125q0,1.2939453125,0.103515625,3.33837890625t0.54345703125,4.01123046875t1.26806640625,3.39013671875t2.3291015625,1.42333984375q2.8466796875,0,4.5029296875-2.2255859375t2.61376953125-5.30517578125t1.52685546875-6.3662109375t1.44921875-5.40869140625q-0.103515625-0.724609375-0.103515625-1.42333984375l0-1.42333984375q-1.1904296875-2.2255859375-3.4677734375-3.85595703125t-4.7099609375-2.19970703125q-0.310546875-0.0517578125-0.5693359375-0.0517578125q-1.44921875,0-2.380859375,1.7080078125q-1.1904296875,2.0703125-1.86328125,4.94287109375t-0.95751953125,5.66748046875t-0.28466796875,3.7783203125z M337.05426757813,135.81640625q0-3.623046875,0.80224609375-8.5400390625t2.71728515625-9.31640625t5.04638671875-7.47900390625t7.89306640625-3.07958984375q4.451171875,0,6.6767578125,2.56201171875t2.2255859375,6.90966796875q0,2.8466796875-1.06103515625,6.23681640625t-3.02783203125,6.41796875t-4.658203125,5.04638671875t-6.00390625,2.0185546875l-1.345703125-0.103515625q0,1.3974609375,0.4140625,3.75244140625t1.21630859375,4.68408203125t2.0703125,4.0888671875t3.07958984375,1.759765625q2.6396484375,0,5.072265625-2.1220703125t4.6064453125-4.7099609375t4.037109375-4.7099609375t3.416015625-2.1220703125q0.828125,0,1.7080078125,0.2587890625t0.9833984375,1.44921875q0,0.724609375-0.38818359375,1.1904296875t-0.69873046875,1.03515625q-1.6044921875,2.7431640625-3.49365234375,5.2275390625t-4.27001953125,4.5029296875t-5.20166015625,3.18310546875t-6.23681640625,1.16455078125q-4.451171875,0-7.4013671875-1.57861328125t-4.76171875-4.244140625t-2.61376953125-6.1591796875t-0.80224609375-7.32373046875z M346.31891601563,131.8828125l1.44921875,1.2939453125q1.03515625,0.931640625,2.0703125,0.4140625t1.86328125-1.88916015625t1.52685546875-3.39013671875t1.2421875-4.140625t0.80224609375-4.140625t0.2587890625-3.3642578125l0-1.759765625t-0.1552734375-1.86328125t-0.54345703125-1.47509765625t-1.21630859375-0.75048828125q-0.2587890625-0.0517578125-0.4658203125-0.0517578125q-1.759765625,0-3.001953125,2.2255859375q-1.345703125,2.484375-2.173828125,6.02978515625t-1.1904296875,7.27197265625t-0.4658203125,5.58984375z"/><path fill="#" d=""/></svg>
